<svg width="48" height="48" viewBox="0 0 24 24" fill="none" xmlns="http://www.w3.org/2000/svg">
    <path d="M22 13V4c0-1.1-.9-2-2-2H4c-1.1 0-2 .9-2 2v12c0 1.1.9 2 2 2h9" clip-rule="evenodd" />
    <path stroke-linejoin="round" stroke-linecap="round" stroke-miterlimit="10" stroke="#415462" d="M22 13V4c0-1.1-.9-2-2-2H4c-1.1 0-2 .9-2 2v12c0 1.1.9 2 2 2h9" />
    <path d="m22 13-5-6-6 8-5-4-4 3v2c0 1.1.9 2 2 2h9" clip-rule="evenodd" />
    <path stroke-linejoin="round" stroke-linecap="round" stroke-miterlimit="10" stroke="#415462" d="m22 13-5-6-6 8-5-4-4 3v2c0 1.1.9 2 2 2h9M7 7c.55228 0 1-.44772 1-1s-.44772-1-1-1-1 .44772-1 1 .44772 1 1 1Zm11 15h.01" />
    <path stroke-linejoin="round" stroke-linecap="round" stroke-miterlimit="10" stroke="#415462" d="M16 16.04c.04-.29.16-.83.56-1.31.1-.13.29-.36.62-.53.4-.2.76-.2.92-.2.18 0 .61.02 1.05.31.54.36.71.88.76 1.04.03.08.19.61 0 1.21-.11.38-.31.62-.48.83-.7.83-1.32.76-1.43 1.3-.01.02 0 .13 0 .31" />
</svg>
