<?xml version="1.0" encoding="UTF-8" standalone="no"?>
<!-- Created with Inkscape (http://www.inkscape.org/) -->

<svg
   width="28"
   height="28"
   viewBox="0 0 28 28"
   version="1.1"
   id="svg5"
   inkscape:version="1.1.2 (0a00cf5339, 2022-02-04, custom)"
   sodipodi:docname="favicon.svg"
   xmlns:inkscape="http://www.inkscape.org/namespaces/inkscape"
   xmlns:sodipodi="http://sodipodi.sourceforge.net/DTD/sodipodi-0.dtd"
   xmlns="http://www.w3.org/2000/svg"
   xmlns:svg="http://www.w3.org/2000/svg">
  <sodipodi:namedview
     id="namedview7"
     pagecolor="#ffffff"
     bordercolor="#666666"
     borderopacity="1.0"
     inkscape:pageshadow="2"
     inkscape:pageopacity="0.0"
     inkscape:pagecheckerboard="0"
     inkscape:document-units="px"
     showgrid="true"
     units="px"
     width="24px"
     inkscape:zoom="23.746577"
     inkscape:cx="14.044129"
     inkscape:cy="13.433515"
     inkscape:window-width="1920"
     inkscape:window-height="1011"
     inkscape:window-x="0"
     inkscape:window-y="32"
     inkscape:window-maximized="1"
     inkscape:current-layer="g838">
    <inkscape:grid
       type="xygrid"
       id="grid824" />
  </sodipodi:namedview>
  <defs
     id="defs2" />
  <rect
     style="fill:#ffffff;stroke-width:0.1"
     id="rect884"
     width="30"
     height="30"
     x="-1"
     y="-1"
     inkscape:label="background" />
  <g
     inkscape:label="Layer 1"
     inkscape:groupmode="layer"
     id="layer1">
    <g
       style="fill:none"
       id="g838"
       transform="translate(2,2)"
       inkscape:label="arrow">
      <path
         fill="#415462"
         d="M 8.41,4.85 C 9.52,4.29 10.76,4 12,4 c 3.54,0 5.83,2.23 8.18,5.57 0.32,0.45 0.94,0.56 1.39,0.24 C 22.02,9.49 22.13,8.87 21.81,8.42 19.47,5.09 16.66,2 12,2 10.45,2 8.89,2.37 7.51,3.07 4.11,4.78 2,8.2 2,12 c 0,5.51 4.49,10 10,10 3.8,0 7.22,-2.11 8.93,-5.51 C 21.18,16 20.98,15.4 20.49,15.15 20,14.9 19.4,15.1 19.15,15.59 17.78,18.31 15.04,20 12,20 7.59,20 4,16.41 4,12 4,8.96 5.69,6.22 8.41,4.85 Z"
         id="path826"
         inkscape:label="arrow-body" />
      <path
         fill="#415462"
         d="m 21,3 c -0.55,0 -1,0.45 -1,1 v 4 h -4 c -0.55,0 -1,0.45 -1,1 0,0.55 0.45,1 1,1 h 5 c 0.55,0 1,-0.45 1,-1 V 4 C 22,3.45 21.55,3 21,3 Z"
         id="path828"
         inkscape:label="arrow-tip" />
    </g>
  </g>
</svg>
